<svg id="svg" version="1.1" xmlns="http://www.w3.org/2000/svg" xmlns:xlink="http://www.w3.org/1999/xlink" width="400" height="400" viewBox="0, 0, 400,400"><g id="svgg"><path id="path0" d="M250.060 9.827 C 250.054 12.882,249.719 14.459,247.991 19.566 C 245.558 26.755,245.387 31.426,247.411 35.439 C 248.548 37.693,248.454 38.624,247.046 39.071 C 246.190 39.343,244.444 42.609,244.444 43.938 C 244.444 45.980,245.367 46.864,249.707 48.976 C 257.390 52.716,259.618 56.946,261.460 71.296 C 261.695 73.130,261.972 75.028,262.075 75.514 C 262.295 76.555,262.520 76.570,254.285 75.026 C 248.766 73.991,234.377 71.843,233.148 71.871 C 232.741 71.880,236.241 72.866,240.926 74.063 C 248.587 76.019,262.012 80.037,262.493 80.518 C 262.597 80.621,263.076 83.256,263.557 86.372 C 265.429 98.487,266.684 102.337,269.596 104.901 C 270.327 105.545,270.593 105.933,270.185 105.763 C 263.952 103.165,257.591 103.171,245.926 105.787 C 227.140 110.000,217.322 110.330,212.369 106.917 C 205.324 102.062,204.378 92.143,210.319 85.424 C 212.906 82.499,213.815 80.797,214.693 77.239 L 215.322 74.693 214.050 73.630 C 212.430 72.276,208.697 71.115,205.370 70.931 C 203.944 70.853,202.010 70.496,201.072 70.138 C 199.431 69.514,199.296 69.515,197.553 70.186 C 196.556 70.569,194.741 70.918,193.519 70.961 C 189.046 71.117,183.704 73.244,183.704 74.870 C 183.704 77.972,185.505 81.983,188.311 85.127 C 194.989 92.611,194.355 97.867,185.998 104.302 C 177.394 110.927,175.953 115.664,181.063 120.518 L 182.193 121.592 181.467 119.681 C 180.504 117.148,180.554 115.045,181.632 112.731 C 182.725 110.384,183.226 110.019,183.028 111.712 C 182.636 115.069,185.493 118.697,193.374 124.852 C 195.943 126.858,198.670 129.192,199.435 130.039 C 205.335 136.569,203.423 148.012,195.322 154.649 L 193.587 156.071 193.865 154.980 C 197.001 142.689,194.450 133.602,186.651 129.282 L 185.021 128.379 186.385 130.044 C 189.780 134.186,191.303 140.987,189.652 144.630 L 189.148 145.741 188.845 144.123 C 188.174 140.537,186.185 137.798,180.958 133.260 C 170.540 124.214,168.400 119.375,171.531 111.944 C 172.667 109.248,172.590 109.195,168.947 110.165 C 158.357 112.984,146.914 132.615,142.380 155.741 C 141.743 158.991,141.669 159.137,139.410 161.589 C 132.528 169.059,126.511 181.757,124.256 193.570 C 122.069 205.027,120.119 209.191,114.025 215.416 C 110.357 219.163,109.630 220.093,109.630 221.034 C 109.630 223.534,110.479 224.000,111.667 222.151 C 112.074 221.517,112.991 220.565,113.704 220.036 L 115.000 219.074 113.799 220.473 C 111.011 223.720,110.649 226.036,112.547 228.483 L 113.238 229.374 113.662 228.090 C 114.107 226.742,116.207 224.494,117.774 223.687 C 118.470 223.329,118.278 223.677,116.994 225.105 C 114.292 228.111,113.744 231.531,115.558 234.078 C 116.578 235.510,117.037 235.480,117.039 233.981 C 117.046 229.989,120.134 225.900,123.110 225.942 L 124.259 225.959 122.926 226.663 C 119.891 228.267,118.507 230.682,118.184 234.937 L 117.963 237.838 114.074 239.499 C 111.935 240.412,109.458 241.481,108.569 241.874 L 106.953 242.588 110.051 245.990 C 111.754 247.861,113.901 250.214,114.820 251.219 L 116.493 253.046 119.237 247.820 L 121.982 242.593 125.773 242.593 L 129.564 242.593 161.843 277.685 L 194.122 312.778 197.709 314.324 C 202.506 316.391,202.336 316.516,200.873 312.005 L 199.602 308.084 185.264 292.488 C 177.378 283.909,162.882 268.132,153.050 257.427 L 135.175 237.963 135.273 234.090 L 135.370 230.218 140.741 227.912 C 143.694 226.643,146.080 225.502,146.042 225.375 C 145.957 225.095,137.003 215.185,136.835 215.185 C 136.770 215.185,135.497 217.517,134.006 220.367 L 131.296 225.548 128.469 225.552 L 125.642 225.556 126.616 223.241 C 127.522 221.087,127.596 220.489,127.677 214.655 C 127.776 207.394,127.838 207.142,131.462 199.259 C 134.632 192.362,139.672 183.174,143.199 177.862 C 146.074 173.533,147.715 170.488,148.521 167.988 C 148.780 167.187,149.950 165.182,151.122 163.533 C 153.636 159.995,160.969 147.823,164.851 140.741 L 167.593 135.741 167.853 138.887 C 168.321 144.541,170.769 149.742,173.347 150.560 C 174.034 150.778,174.074 151.156,174.074 157.447 C 174.074 176.794,178.861 190.528,188.767 199.605 C 191.731 202.322,191.393 202.465,187.733 200.045 C 183.193 197.043,179.104 192.245,176.806 187.226 L 175.826 185.085 173.823 188.191 C 158.646 211.727,156.756 237.687,168.512 261.113 C 170.848 265.766,181.505 280.928,182.253 280.662 C 187.407 278.831,202.967 257.530,211.009 241.296 C 213.329 236.613,213.722 236.002,213.515 237.407 C 211.593 250.431,202.137 267.706,189.241 281.755 C 187.622 283.519,186.296 285.079,186.296 285.222 C 186.296 285.435,200.728 301.507,203.486 304.365 L 204.303 305.212 206.720 301.958 C 219.285 285.044,229.419 253.639,231.871 224.012 C 232.758 213.293,230.473 199.238,226.345 190.016 L 225.614 188.385 225.363 189.840 C 222.338 207.379,203.239 238.474,189.773 247.783 C 186.457 250.075,186.009 250.073,188.656 247.778 C 198.109 239.579,206.262 226.309,216.810 201.954 C 220.939 192.420,221.481 190.606,221.481 186.332 L 221.481 183.190 218.599 187.984 C 208.380 204.983,197.203 216.386,184.537 222.735 C 180.302 224.857,180.282 224.759,184.352 221.820 C 192.241 216.124,205.569 200.860,214.924 186.808 C 219.279 180.267,219.971 178.661,219.548 176.081 C 219.042 172.995,219.460 163.873,220.318 159.259 C 220.716 157.120,221.162 153.870,221.309 152.037 L 221.577 148.704 223.769 146.712 C 227.529 143.297,228.223 141.269,228.294 133.487 C 228.372 125.050,230.242 123.687,244.259 121.846 C 253.539 120.627,256.879 120.053,261.784 118.836 C 264.293 118.213,266.399 117.762,266.465 117.833 C 266.531 117.905,266.651 132.171,266.733 149.537 L 266.882 181.111 265.722 181.111 C 263.636 181.111,260.281 183.172,256.124 187.009 C 248.499 194.044,243.875 194.849,239.438 189.915 L 237.778 188.068 237.778 189.978 C 237.778 196.695,244.537 198.795,253.363 194.821 C 264.051 190.009,267.013 191.630,267.029 202.301 L 267.037 207.749 255.590 234.708 L 244.143 261.667 242.071 261.778 C 239.654 261.907,239.673 261.837,241.109 265.424 C 250.062 287.784,282.122 288.899,292.788 267.222 C 295.334 262.048,295.334 261.915,292.766 261.779 L 290.647 261.667 279.756 234.444 L 268.864 207.222 268.977 201.852 C 269.193 191.523,272.242 189.972,282.870 194.784 C 291.428 198.660,298.519 196.414,298.519 189.827 C 298.519 188.181,298.127 188.176,296.883 189.807 C 293.079 194.794,287.690 193.948,280.341 187.209 C 275.935 183.170,274.272 182.087,271.274 181.306 C 270.104 181.001,269.131 180.708,269.111 180.654 C 269.091 180.600,269.177 169.806,269.304 156.667 C 269.430 143.528,269.555 129.100,269.582 124.605 L 269.630 116.432 271.925 115.346 C 281.470 110.828,282.498 106.819,277.322 94.299 C 275.262 89.314,273.634 84.761,273.840 84.556 C 274.044 84.351,289.758 90.431,308.519 97.975 L 325.370 104.750 325.479 156.542 C 325.593 210.741,325.410 220.146,324.056 229.937 C 317.233 279.252,292.034 319.312,249.815 347.961 C 246.556 350.172,242.923 352.658,241.741 353.484 C 239.203 355.259,239.374 355.392,237.748 350.370 C 235.061 342.070,232.977 330.934,232.159 320.498 L 231.716 314.852 230.166 319.556 C 226.447 330.840,220.883 342.535,210.847 360.160 C 201.967 375.756,200.926 378.344,200.926 384.815 C 200.926 388.832,200.993 389.215,202.103 391.559 L 203.280 394.044 214.140 386.639 C 220.113 382.567,225.712 378.741,226.582 378.138 L 228.165 377.040 227.364 375.465 C 226.923 374.598,225.923 372.945,225.141 371.792 C 222.181 367.423,220.827 359.726,222.175 354.923 C 222.893 352.366,223.146 352.830,223.194 356.797 C 223.269 362.940,224.612 366.797,228.097 370.884 C 229.120 372.084,230.186 373.538,230.466 374.117 L 230.976 375.168 233.729 373.261 C 235.243 372.213,242.065 367.529,248.889 362.853 C 279.366 341.970,292.795 329.046,307.925 306.031 C 323.877 281.768,332.326 258.131,336.362 226.481 C 336.662 224.128,336.828 204.530,336.925 159.815 L 337.063 96.481 332.143 95.084 C 329.436 94.316,323.806 92.683,319.630 91.455 C 309.133 88.368,286.723 82.262,278.760 80.318 C 274.561 79.293,272.044 78.501,271.861 78.148 C 271.702 77.843,270.459 73.259,269.098 67.963 C 265.328 53.291,264.911 52.217,259.824 44.089 C 258.335 41.710,256.683 38.906,256.152 37.858 C 254.981 35.547,254.204 35.086,251.752 35.247 C 247.914 35.498,247.057 29.230,249.592 19.444 C 250.915 14.340,251.302 9.381,250.487 7.975 C 250.142 7.378,250.064 7.715,250.060 9.827 M197.209 39.167 C 194.670 44.549,195.205 44.387,192.087 40.719 C 189.086 37.188,189.311 37.106,188.832 41.905 C 188.362 46.622,188.694 46.427,185.380 43.932 L 182.593 41.834 182.593 45.880 L 182.593 49.925 179.167 48.856 C 177.282 48.267,175.681 47.784,175.609 47.782 C 175.261 47.771,176.086 49.121,178.190 52.007 L 180.494 55.166 182.056 53.725 C 183.654 52.252,185.025 51.420,186.667 50.926 C 187.242 50.753,186.891 51.132,185.741 51.926 C 182.375 54.249,180.717 58.202,181.464 62.122 C 182.063 65.268,182.108 65.316,183.592 64.399 C 184.300 63.962,185.794 63.320,186.913 62.974 C 188.799 62.391,189.021 62.198,189.946 60.348 C 190.519 59.200,191.475 57.993,192.193 57.509 C 194.113 56.215,194.481 56.507,192.954 58.113 C 192.198 58.908,191.399 60.074,191.179 60.705 L 190.780 61.851 191.964 61.203 C 193.503 60.361,204.815 60.239,206.235 61.049 C 208.020 62.065,207.113 59.272,205.113 57.588 C 203.730 56.425,204.630 56.366,206.325 57.509 C 207.043 57.993,207.999 59.200,208.573 60.348 C 209.497 62.198,209.720 62.391,211.605 62.974 C 212.724 63.320,214.223 63.964,214.936 64.405 L 216.232 65.206 216.603 63.992 C 218.184 58.823,216.848 54.625,212.758 51.916 C 211.783 51.270,211.186 50.741,211.433 50.741 C 212.291 50.741,214.898 52.284,216.439 53.704 L 217.989 55.132 220.635 51.553 C 223.797 47.277,223.875 47.461,219.478 48.822 L 215.926 49.922 215.926 46.072 C 215.926 41.579,216.137 41.721,212.963 44.074 C 211.589 45.093,210.377 45.926,210.269 45.926 C 210.161 45.926,209.952 43.989,209.804 41.622 L 209.535 37.317 208.010 39.122 C 207.171 40.114,205.870 41.593,205.119 42.407 L 203.754 43.889 201.552 39.259 L 199.350 34.630 197.209 39.167 M160.926 71.905 C 140.306 74.528,120.938 79.078,90.741 88.394 C 85.139 90.122,77.306 92.431,73.333 93.526 C 69.361 94.620,65.444 95.749,64.630 96.036 L 63.148 96.556 63.041 153.741 C 62.975 189.107,63.078 213.756,63.312 218.344 C 66.123 273.520,95.528 325.148,141.903 356.331 L 145.152 358.515 145.391 357.128 C 147.280 346.171,152.268 336.587,161.822 325.556 C 167.477 319.027,171.955 311.465,174.432 304.259 C 175.445 301.314,175.550 301.142,175.334 302.778 C 174.609 308.279,171.613 315.408,166.850 322.967 C 157.140 338.380,155.183 342.329,152.917 351.092 C 152.081 354.323,151.792 356.320,151.738 359.250 L 151.667 363.129 158.704 368.034 C 167.036 373.843,165.927 373.561,166.967 370.137 C 169.250 362.622,173.411 355.029,183.991 339.074 C 190.422 329.375,194.815 322.448,194.815 322.005 C 194.815 320.861,170.113 295.100,169.862 295.984 C 166.704 307.127,164.401 310.977,153.174 323.891 C 146.960 331.039,144.497 334.224,142.214 338.065 C 141.334 339.547,140.481 340.714,140.321 340.658 C 137.916 339.817,121.536 324.489,115.301 317.245 C 94.356 292.909,81.152 264.155,76.514 232.778 C 74.848 221.507,74.771 218.024,74.889 159.661 L 75.000 104.693 78.148 103.392 C 79.880 102.676,87.046 99.637,94.074 96.638 C 125.523 83.217,142.524 77.163,160.171 73.100 C 163.234 72.395,165.907 71.756,166.111 71.679 C 166.778 71.428,163.574 71.568,160.926 71.905 M102.354 210.954 C 102.627 215.724,102.909 216.416,104.908 217.216 C 109.390 219.009,113.502 214.636,111.314 210.404 C 110.695 209.207,109.948 208.854,105.408 207.610 L 102.112 206.706 102.354 210.954 M279.251 236.952 C 284.552 250.248,288.889 261.290,288.889 261.489 C 288.889 261.717,285.104 261.852,278.704 261.852 L 268.519 261.852 268.520 243.611 C 268.521 223.551,268.838 210.905,269.312 212.051 C 269.478 212.451,273.950 223.656,279.251 236.952 M267.376 236.852 L 267.297 261.852 256.611 261.852 C 249.836 261.852,245.926 261.718,245.926 261.487 C 245.926 261.174,266.454 212.901,266.915 212.130 C 267.006 211.977,267.165 211.852,267.268 211.852 C 267.371 211.852,267.420 223.102,267.376 236.852 M227.083 270.478 C 223.120 287.490,214.150 304.446,192.949 335.000 C 178.530 355.780,171.821 368.059,171.053 375.072 C 170.914 376.346,169.930 375.607,190.054 389.356 L 195.848 393.314 195.308 391.565 C 194.362 388.499,194.277 383.590,195.100 379.625 C 196.370 373.504,197.619 370.841,206.393 355.556 C 225.414 322.416,231.997 298.749,229.111 273.889 C 228.211 266.146,228.125 266.001,227.083 270.478 " stroke="none" fill="#f9f9f9" fill-rule="evenodd"></path><path id="path1" d="M0.000 200.000 L 0.000 400.000 200.000 400.000 L 400.000 400.000 400.000 200.000 L 400.000 0.000 200.000 0.000 L 0.000 0.000 0.000 200.000 M250.578 7.971 C 251.456 10.270,251.124 14.456,249.593 20.370 C 247.624 27.977,248.243 36.408,250.692 35.337 C 253.079 34.292,254.955 35.143,256.357 37.905 C 256.787 38.752,258.392 41.444,259.923 43.889 C 264.740 51.575,265.585 53.698,268.914 66.481 C 270.559 72.796,272.042 78.104,272.209 78.275 C 272.377 78.447,275.156 79.224,278.386 80.002 C 285.148 81.631,309.464 88.254,319.815 91.287 C 323.685 92.421,329.227 94.037,332.130 94.878 L 337.407 96.407 337.400 154.222 C 337.396 187.658,337.238 214.848,337.026 218.704 C 334.600 262.673,316.453 302.860,284.660 334.662 C 273.390 345.936,270.763 348.009,247.222 364.201 C 229.248 376.565,230.963 375.579,230.156 374.012 C 229.807 373.333,228.800 371.972,227.917 370.987 C 224.749 367.453,222.991 362.481,222.922 356.867 L 222.881 353.519 222.351 355.556 C 221.108 360.330,222.356 367.370,225.180 371.514 C 226.693 373.733,228.148 376.417,228.148 376.986 C 228.148 377.178,224.856 379.550,220.833 382.257 C 216.810 384.963,211.382 388.656,208.770 390.462 C 202.801 394.591,203.282 394.470,202.118 392.143 C 198.363 384.640,199.832 379.147,210.698 360.050 C 220.956 342.024,226.028 331.367,229.830 319.852 C 232.037 313.170,231.936 313.136,232.418 320.741 C 233.080 331.201,236.243 346.800,239.077 353.583 L 239.600 354.834 242.115 353.041 C 243.498 352.055,246.713 349.857,249.259 348.158 C 291.854 319.729,317.001 279.398,324.167 228.018 C 324.931 222.537,324.952 221.055,325.082 163.661 L 325.215 104.914 321.404 103.358 C 305.369 96.808,274.855 84.815,274.226 84.815 C 273.838 84.815,274.261 86.068,276.833 92.521 C 282.634 107.082,282.010 110.450,272.636 115.163 L 269.630 116.675 269.629 141.763 C 269.628 155.562,269.519 169.945,269.387 173.725 L 269.147 180.598 271.215 181.061 C 273.870 181.655,276.733 183.538,281.021 187.512 C 287.749 193.747,291.986 194.435,296.328 189.998 L 298.439 187.841 298.664 188.970 C 300.025 195.771,291.688 199.012,283.027 195.051 C 272.313 190.151,269.260 191.739,269.259 202.208 L 269.259 207.593 280.037 234.537 L 290.816 261.481 293.001 261.481 C 295.560 261.481,295.545 261.432,294.115 265.054 C 284.608 289.146,249.674 288.892,240.556 264.665 C 239.331 261.412,239.304 261.481,241.819 261.481 L 244.008 261.481 247.429 253.426 C 249.310 248.995,254.491 236.803,258.943 226.331 L 267.037 207.293 267.035 202.628 C 267.030 192.015,263.884 190.272,253.333 195.038 C 246.027 198.338,240.578 197.592,238.241 192.972 C 236.576 189.681,237.343 186.831,239.198 189.414 C 242.984 194.686,248.387 193.942,255.655 187.147 C 259.860 183.216,262.205 181.707,265.126 181.052 C 267.055 180.619,267.098 180.581,266.882 179.505 C 266.761 178.898,266.552 164.754,266.418 148.073 C 266.197 120.598,266.119 117.768,265.587 117.986 C 263.616 118.792,255.498 120.472,249.630 121.287 C 234.989 123.321,233.074 123.815,230.308 126.269 L 228.704 127.693 228.505 133.975 C 228.258 141.762,226.022 146.890,222.308 148.188 C 222.069 148.271,221.720 150.073,221.490 152.407 C 221.269 154.648,220.745 158.398,220.325 160.741 C 219.688 164.297,219.583 166.166,219.687 172.058 L 219.813 179.116 218.005 182.243 C 210.843 194.637,194.466 214.228,185.370 221.283 C 182.588 223.441,182.573 223.513,185.185 222.213 C 197.159 216.254,210.562 202.159,219.474 186.153 C 220.872 183.644,221.332 183.072,221.536 183.591 C 224.463 191.009,205.264 230.877,192.103 244.713 C 188.956 248.021,188.841 248.193,190.556 247.028 C 202.755 238.737,223.080 205.186,225.102 190.000 L 225.423 187.593 226.401 189.738 C 228.789 194.969,231.042 203.600,231.836 210.556 C 234.154 230.866,225.101 270.648,213.335 291.852 C 209.788 298.244,204.965 305.244,204.215 305.087 C 203.852 305.011,200.895 301.821,188.765 288.421 L 185.862 285.216 189.472 281.219 C 201.145 268.294,208.983 254.764,212.377 241.683 C 212.903 239.656,213.330 237.822,213.326 237.609 C 213.321 237.396,211.765 240.222,209.868 243.889 C 201.779 259.522,190.230 275.166,182.912 280.403 L 181.935 281.103 177.870 275.644 C 156.147 246.473,154.813 217.426,173.837 187.825 L 175.830 184.724 177.183 187.535 C 179.764 192.902,184.535 198.249,188.963 200.738 C 190.307 201.493,190.151 201.262,187.513 198.580 C 178.007 188.920,173.304 174.359,173.764 156.015 L 173.887 151.104 172.696 150.379 C 170.031 148.758,168.461 145.405,167.713 139.734 L 167.312 136.690 164.280 142.141 C 159.955 149.917,153.788 160.092,151.149 163.805 C 149.906 165.555,148.889 167.135,148.889 167.318 C 148.889 168.347,146.656 172.876,144.644 175.926 C 132.970 193.630,127.745 205.778,127.877 214.917 C 127.949 219.937,127.872 220.759,127.174 222.407 C 126.744 223.426,126.286 224.509,126.158 224.815 C 125.966 225.273,126.376 225.387,128.489 225.466 L 131.053 225.562 133.902 220.148 C 136.638 214.949,136.776 214.762,137.393 215.423 C 142.113 220.480,146.296 225.191,146.296 225.450 C 146.296 225.629,143.948 226.766,141.078 227.977 C 138.207 229.188,135.811 230.264,135.752 230.367 C 135.693 230.471,135.528 232.149,135.386 234.096 L 135.127 237.636 167.505 272.903 L 199.883 308.170 201.101 312.061 C 202.586 316.803,202.787 316.618,198.166 314.750 L 194.352 313.208 162.104 278.178 L 129.857 243.148 126.422 242.826 C 121.985 242.410,122.455 242.063,119.278 248.112 C 117.111 252.239,116.433 253.252,116.088 252.880 C 115.846 252.620,113.615 250.175,111.130 247.446 L 106.612 242.485 112.195 240.089 L 117.778 237.692 117.787 235.976 C 117.809 231.825,119.256 228.839,122.128 227.017 C 123.953 225.860,123.753 225.586,121.707 226.441 C 119.163 227.504,117.429 230.401,117.416 233.611 C 117.406 235.904,117.133 235.999,115.594 234.246 C 113.727 232.120,113.961 228.607,116.167 225.657 L 117.488 223.889 115.745 225.597 C 114.646 226.673,113.905 227.769,113.742 228.560 L 113.482 229.815 112.296 228.185 C 110.557 225.794,110.735 223.976,112.975 221.245 C 113.620 220.458,113.312 220.706,112.291 221.794 L 110.434 223.774 109.793 222.796 C 108.657 221.062,109.467 219.586,114.021 215.092 C 119.838 209.352,121.721 205.327,124.028 193.698 C 126.533 181.075,131.624 170.306,139.286 161.425 C 140.769 159.706,141.852 158.109,141.852 157.642 C 141.852 156.241,144.006 147.940,145.788 142.475 C 152.132 123.016,161.252 110.922,170.531 109.663 C 172.928 109.338,172.848 109.065,171.451 112.778 C 168.863 119.654,170.909 124.315,179.940 132.116 C 185.450 136.875,187.855 139.817,188.767 142.914 L 189.382 145.000 189.729 143.704 C 190.841 139.554,189.199 133.564,185.946 129.907 C 184.136 127.872,184.295 127.750,186.852 129.219 C 194.090 133.377,197.253 142.954,194.616 152.725 C 193.812 155.702,194.105 155.719,196.848 152.852 C 201.159 148.346,203.408 142.232,202.594 137.231 C 201.828 132.522,199.927 130.127,192.203 124.137 C 185.525 118.959,182.994 115.828,182.864 112.587 C 182.791 110.742,182.721 110.748,181.842 112.685 C 180.808 114.963,180.870 118.286,181.987 120.493 C 183.046 122.585,182.807 122.669,181.021 120.833 C 176.272 115.951,177.235 111.021,183.978 105.710 C 191.305 99.939,192.407 98.431,192.363 94.250 C 192.323 90.571,191.792 89.333,188.839 86.046 C 185.801 82.664,184.588 80.480,183.862 77.086 L 183.337 74.630 184.405 73.653 C 185.971 72.222,189.312 71.109,192.742 70.875 C 194.391 70.763,196.266 70.437,196.908 70.150 C 198.398 69.485,200.491 69.485,201.981 70.150 C 202.623 70.437,204.498 70.763,206.147 70.875 C 209.591 71.110,212.942 72.230,214.452 73.653 L 215.488 74.630 214.975 77.015 C 214.254 80.368,212.979 82.733,210.235 85.803 C 204.125 92.640,206.047 103.762,214.015 107.674 L 216.111 108.704 223.889 108.660 C 232.296 108.612,232.730 108.550,246.667 105.406 C 256.468 103.195,262.601 103.015,267.956 104.782 L 269.982 105.450 268.699 104.129 C 266.330 101.690,265.236 98.273,263.703 88.519 C 263.270 85.769,262.798 82.857,262.652 82.048 L 262.388 80.577 257.953 79.158 C 250.175 76.670,242.583 74.556,236.296 73.129 C 232.935 72.366,230.058 71.631,229.902 71.495 C 229.076 70.776,257.404 74.987,261.204 76.148 C 262.011 76.395,262.013 76.509,261.095 70.185 C 259.100 56.442,257.151 52.827,249.801 49.238 C 243.936 46.374,243.243 45.244,245.044 41.488 C 245.631 40.264,246.388 39.172,246.726 39.061 C 248.249 38.563,248.305 37.880,247.043 35.143 C 245.206 31.156,245.476 26.428,247.974 18.889 C 249.804 13.364,250.284 9.647,249.522 6.913 C 249.067 5.280,249.850 6.065,250.578 7.971 M206.664 40.469 L 209.438 37.229 209.675 38.337 C 209.806 38.946,209.949 40.444,209.993 41.667 C 210.146 45.888,210.169 45.903,213.142 43.735 C 216.532 41.263,216.447 41.207,216.154 45.741 C 216.016 47.880,215.971 49.630,216.054 49.630 C 216.137 49.630,217.830 49.130,219.815 48.519 C 221.800 47.907,223.492 47.407,223.575 47.407 C 223.808 47.407,220.206 52.614,218.966 54.070 L 217.867 55.361 216.209 53.833 C 213.857 51.665,212.338 50.967,214.377 52.991 C 217.214 55.808,218.233 60.753,216.716 64.347 L 216.211 65.545 215.145 64.786 C 214.558 64.369,212.966 63.652,211.605 63.193 C 209.325 62.424,209.092 62.245,208.633 60.918 C 208.119 59.432,206.970 57.973,205.831 57.359 C 205.381 57.117,205.519 57.499,206.279 58.597 C 207.873 60.902,208.225 62.533,206.949 61.696 C 205.473 60.729,199.854 60.217,195.880 60.687 C 194.003 60.909,192.086 61.358,191.570 61.696 C 190.293 62.533,190.646 60.902,192.240 58.597 C 193.120 57.323,193.194 57.086,192.610 57.398 C 191.659 57.907,190.186 59.899,189.748 61.269 C 189.455 62.185,189.015 62.484,186.920 63.190 C 185.556 63.650,183.941 64.382,183.331 64.816 L 182.223 65.606 181.807 64.562 C 180.184 60.488,181.316 55.665,184.587 52.714 C 186.237 51.225,186.321 51.087,185.235 51.645 C 184.550 51.997,183.256 52.961,182.359 53.787 C 180.777 55.246,180.708 55.270,179.997 54.627 C 179.266 53.965,174.649 47.407,174.914 47.407 C 175.039 47.407,180.186 48.923,181.991 49.491 C 182.652 49.699,182.673 49.517,182.419 45.781 C 182.108 41.224,182.016 41.289,185.362 43.698 C 188.396 45.882,188.360 45.909,188.708 41.055 C 189.022 36.665,188.908 36.689,192.014 40.370 C 195.110 44.039,194.656 44.176,197.200 38.796 L 199.346 34.259 201.617 38.985 L 203.889 43.710 206.664 40.469 M170.340 70.895 C 170.255 70.979,167.102 71.738,163.333 72.581 C 143.589 76.998,125.120 83.474,93.889 96.934 C 87.778 99.567,80.975 102.441,78.772 103.319 L 74.765 104.916 74.930 162.551 C 75.103 223.034,75.072 221.921,76.880 233.704 C 82.976 273.418,103.631 310.194,134.082 335.547 C 140.083 340.544,140.375 340.728,140.893 339.843 C 143.927 334.656,146.972 330.745,156.489 319.815 C 163.445 311.825,169.630 300.493,169.630 295.736 C 169.630 295.433,169.757 295.185,169.913 295.185 C 170.526 295.185,188.445 314.217,194.525 321.325 C 195.263 322.188,193.910 324.482,182.524 341.667 C 173.468 355.335,170.126 361.457,167.411 369.353 L 166.042 373.336 158.712 368.250 L 151.381 363.164 151.591 358.712 C 152.038 349.258,155.314 341.046,164.449 326.481 C 170.091 317.485,171.816 314.219,173.368 309.585 C 174.804 305.298,174.597 304.615,173.020 308.436 C 170.808 313.794,166.428 320.541,161.404 326.331 C 152.613 336.462,145.556 350.404,145.556 357.640 C 145.556 358.935,145.092 358.766,141.164 356.042 C 98.061 326.149,72.566 285.050,64.355 232.222 L 63.175 224.630 63.056 160.497 L 62.937 96.365 65.265 95.611 C 66.545 95.196,70.426 94.088,73.889 93.148 C 77.352 92.208,85.269 89.877,91.481 87.968 C 122.979 78.288,141.531 74.005,162.778 71.510 C 169.078 70.771,170.587 70.648,170.340 70.895 M105.973 207.560 C 111.219 209.011,112.028 209.722,111.955 212.819 C 111.904 215.037,111.703 215.395,109.573 217.082 C 108.190 218.177,108.093 218.198,106.213 217.795 C 102.783 217.059,102.410 216.364,102.080 210.093 C 101.872 206.137,101.561 206.339,105.973 207.560 M268.749 236.496 C 268.606 250.086,268.554 261.270,268.634 261.350 C 268.713 261.429,273.264 261.449,278.747 261.395 L 288.717 261.296 278.863 236.541 L 269.009 211.785 268.749 236.496 M256.448 236.996 L 246.044 261.296 256.411 261.395 C 262.113 261.449,266.838 261.434,266.910 261.361 C 266.983 261.289,267.000 250.309,266.947 236.962 L 266.852 212.696 256.448 236.996 M229.044 271.469 C 232.538 298.479,226.289 321.422,205.739 357.037 C 195.368 375.010,193.139 382.298,195.379 390.901 C 195.690 392.093,195.872 393.140,195.784 393.228 C 195.640 393.372,189.542 389.267,175.741 379.733 L 170.926 376.408 171.014 374.963 C 171.451 367.795,177.174 357.665,197.562 327.963 C 215.062 302.471,224.336 283.911,227.427 268.201 C 228.024 265.162,228.301 265.721,229.044 271.469 " stroke="none" fill="#040404" fill-rule="evenodd"></path><path id="path2" d="M182.328 43.889 C 182.331 44.907,182.403 45.280,182.488 44.717 C 182.573 44.154,182.571 43.321,182.483 42.865 C 182.395 42.410,182.325 42.870,182.328 43.889 M216.027 45.185 C 216.027 46.102,216.099 46.477,216.187 46.019 C 216.276 45.560,216.276 44.810,216.187 44.352 C 216.099 43.894,216.027 44.269,216.027 45.185 M168.682 71.076 C 168.796 71.261,169.223 71.325,169.630 71.218 C 170.649 70.952,170.557 70.741,169.423 70.741 C 168.901 70.741,168.568 70.892,168.682 71.076 M206.390 94.259 C 206.394 95.074,206.470 95.364,206.558 94.903 C 206.647 94.442,206.643 93.776,206.551 93.422 C 206.458 93.068,206.386 93.444,206.390 94.259 M259.722 103.589 C 260.079 103.682,260.662 103.682,261.019 103.589 C 261.375 103.495,261.083 103.419,260.370 103.419 C 259.657 103.419,259.366 103.495,259.722 103.589 M222.130 109.150 C 222.588 109.239,223.338 109.239,223.796 109.150 C 224.255 109.062,223.880 108.990,222.963 108.990 C 222.046 108.990,221.671 109.062,222.130 109.150 M180.827 116.296 C 180.827 117.009,180.903 117.301,180.996 116.944 C 181.089 116.588,181.089 116.005,180.996 115.648 C 180.903 115.292,180.827 115.583,180.827 116.296 M182.222 134.190 C 182.222 134.254,182.764 134.795,183.426 135.394 L 184.630 136.481 183.542 135.278 C 182.528 134.156,182.222 133.904,182.222 134.190 M167.501 137.593 C 167.505 138.407,167.581 138.697,167.669 138.236 C 167.758 137.776,167.755 137.109,167.662 136.755 C 167.569 136.401,167.497 136.778,167.501 137.593 M266.459 148.519 C 266.459 154.120,266.510 156.412,266.573 153.611 C 266.636 150.810,266.636 146.227,266.573 143.426 C 266.510 140.625,266.459 142.917,266.459 148.519 M190.086 140.370 C 190.086 141.083,190.162 141.375,190.255 141.019 C 190.348 140.662,190.348 140.079,190.255 139.722 C 190.162 139.366,190.086 139.657,190.086 140.370 M269.415 164.074 C 269.415 168.250,269.469 169.958,269.536 167.870 C 269.602 165.782,269.602 162.366,269.536 160.278 C 269.469 158.190,269.415 159.898,269.415 164.074 M173.790 162.222 C 173.790 162.935,173.866 163.227,173.959 162.870 C 174.052 162.514,174.052 161.931,173.959 161.574 C 173.866 161.218,173.790 161.509,173.790 162.222 M219.386 170.185 C 219.388 171.815,219.453 172.435,219.531 171.564 C 219.609 170.693,219.608 169.360,219.528 168.601 C 219.449 167.843,219.385 168.556,219.386 170.185 M266.773 177.593 C 266.775 178.611,266.847 178.984,266.932 178.421 C 267.018 177.858,267.015 177.025,266.927 176.569 C 266.839 176.113,266.770 176.574,266.773 177.593 M280.556 187.407 C 281.559 188.426,282.463 189.259,282.565 189.259 C 282.667 189.259,281.929 188.426,280.926 187.407 C 279.923 186.389,279.019 185.556,278.917 185.556 C 278.815 185.556,279.552 186.389,280.556 187.407 M186.667 197.894 C 186.667 197.957,187.208 198.499,187.870 199.097 L 189.074 200.185 187.986 198.981 C 186.972 197.859,186.667 197.608,186.667 197.894 M269.007 205.185 C 269.007 206.509,269.075 207.051,269.157 206.389 C 269.239 205.727,269.239 204.644,269.157 203.981 C 269.075 203.319,269.007 203.861,269.007 205.185 M337.148 212.593 C 337.148 213.713,337.217 214.171,337.302 213.611 C 337.387 213.051,337.387 212.134,337.302 211.574 C 337.217 211.014,337.148 211.472,337.148 212.593 M74.921 213.519 C 74.924 214.537,74.995 214.910,75.081 214.347 C 75.166 213.784,75.163 212.950,75.076 212.495 C 74.988 212.039,74.918 212.500,74.921 213.519 M126.759 225.440 C 127.116 225.534,127.699 225.534,128.056 225.440 C 128.412 225.347,128.120 225.271,127.407 225.271 C 126.694 225.271,126.403 225.347,126.759 225.440 M160.471 228.519 C 160.471 229.435,160.543 229.810,160.632 229.352 C 160.720 228.894,160.720 228.144,160.632 227.685 C 160.543 227.227,160.471 227.602,160.471 228.519 M135.271 233.333 C 135.271 234.046,135.347 234.338,135.440 233.981 C 135.534 233.625,135.534 233.042,135.440 232.685 C 135.347 232.329,135.271 232.620,135.271 233.333 M268.664 237.778 C 268.664 240.528,268.722 241.653,268.793 240.278 C 268.864 238.903,268.864 236.653,268.793 235.278 C 268.722 233.903,268.664 235.028,268.664 237.778 M117.123 234.444 C 117.123 235.157,117.199 235.449,117.292 235.093 C 117.386 234.736,117.386 234.153,117.292 233.796 C 117.199 233.440,117.123 233.731,117.123 234.444 M126.949 242.855 C 127.409 242.943,128.076 242.940,128.430 242.847 C 128.784 242.754,128.407 242.682,127.593 242.686 C 126.778 242.690,126.488 242.766,126.949 242.855 M240.648 261.749 C 241.310 261.832,242.394 261.832,243.056 261.749 C 243.718 261.667,243.176 261.600,241.852 261.600 C 240.528 261.600,239.986 261.667,240.648 261.749 M251.226 261.759 C 254.243 261.821,259.077 261.821,261.967 261.758 C 264.857 261.696,262.389 261.645,256.481 261.645 C 250.574 261.645,248.209 261.696,251.226 261.759 M273.634 261.759 C 276.549 261.821,281.215 261.821,284.004 261.758 C 286.792 261.695,284.407 261.644,278.704 261.644 C 273.000 261.644,270.718 261.696,273.634 261.759 M291.759 261.749 C 292.421 261.832,293.505 261.832,294.167 261.749 C 294.829 261.667,294.287 261.600,292.963 261.600 C 291.639 261.600,291.097 261.667,291.759 261.749 M279.057 323.426 L 277.593 325.000 279.167 323.536 C 280.631 322.174,280.911 321.852,280.631 321.852 C 280.570 321.852,279.862 322.560,279.057 323.426 M273.125 329.352 L 272.037 330.556 273.241 329.468 C 273.903 328.869,274.444 328.328,274.444 328.264 C 274.444 327.978,274.139 328.230,273.125 329.352 M194.550 385.370 C 194.553 386.389,194.625 386.762,194.710 386.199 C 194.795 385.636,194.793 384.802,194.705 384.347 C 194.617 383.891,194.548 384.352,194.550 385.370 " stroke="none" fill="#565656" fill-rule="evenodd"></path><path id="path3" d="M230.370 71.625 C 230.370 71.703,230.862 71.840,231.462 71.928 C 232.062 72.016,232.469 71.952,232.366 71.785 C 232.182 71.488,230.370 71.342,230.370 71.625 M337.218 152.963 C 337.218 184.028,337.261 196.736,337.315 181.204 C 337.368 165.671,337.368 140.255,337.315 124.722 C 337.261 109.190,337.218 121.898,337.218 152.963 M325.185 158.815 L 325.370 213.148 325.464 159.094 C 325.516 129.364,325.432 104.914,325.279 104.760 C 325.126 104.607,325.083 128.931,325.185 158.815 M218.981 109.144 C 219.338 109.237,219.921 109.237,220.278 109.144 C 220.634 109.051,220.343 108.975,219.630 108.975 C 218.917 108.975,218.625 109.051,218.981 109.144 M186.481 119.259 C 187.277 120.074,188.011 120.741,188.113 120.741 C 188.215 120.741,187.647 120.074,186.852 119.259 C 186.056 118.444,185.322 117.778,185.220 117.778 C 185.118 117.778,185.686 118.444,186.481 119.259 M180.702 120.452 C 181.478 121.332,182.222 121.523,182.222 120.842 C 182.222 120.719,182.110 120.730,181.972 120.868 C 181.834 121.005,181.293 120.741,180.768 120.281 L 179.815 119.444 180.702 120.452 M228.267 131.852 C 228.267 133.176,228.334 133.718,228.416 133.056 C 228.498 132.394,228.498 131.310,228.416 130.648 C 228.334 129.986,228.267 130.528,228.267 131.852 M269.413 145.185 C 269.413 148.954,269.468 150.495,269.535 148.611 C 269.602 146.727,269.602 143.644,269.535 141.759 C 269.468 139.875,269.413 141.417,269.413 145.185 M196.458 153.426 L 195.370 154.630 196.574 153.542 C 197.236 152.944,197.778 152.402,197.778 152.338 C 197.778 152.052,197.472 152.304,196.458 153.426 M173.810 157.963 C 173.812 158.981,173.884 159.354,173.969 158.791 C 174.055 158.228,174.052 157.395,173.964 156.939 C 173.877 156.484,173.807 156.944,173.810 157.963 M266.781 172.778 C 266.784 174.000,266.853 174.455,266.935 173.790 C 267.018 173.124,267.016 172.124,266.931 171.567 C 266.847 171.011,266.779 171.556,266.781 172.778 M254.983 187.870 L 253.519 189.444 255.093 187.980 C 256.556 186.619,256.837 186.296,256.557 186.296 C 256.496 186.296,255.788 187.005,254.983 187.870 M260.833 192.478 C 261.190 192.571,261.773 192.571,262.130 192.478 C 262.486 192.384,262.194 192.308,261.481 192.308 C 260.769 192.308,260.477 192.384,260.833 192.478 M268.995 199.444 C 268.998 200.463,269.070 200.836,269.155 200.273 C 269.240 199.710,269.238 198.876,269.150 198.421 C 269.062 197.965,268.992 198.426,268.995 199.444 M63.056 216.481 C 63.060 217.296,63.136 217.586,63.225 217.125 C 63.314 216.665,63.310 215.998,63.217 215.644 C 63.125 215.290,63.052 215.667,63.056 216.481 M74.901 217.037 C 74.901 217.750,74.977 218.042,75.070 217.685 C 75.163 217.329,75.163 216.745,75.070 216.389 C 74.977 216.032,74.901 216.324,74.901 217.037 M127.864 217.037 C 127.864 217.750,127.940 218.042,128.033 217.685 C 128.126 217.329,128.126 216.745,128.033 216.389 C 127.940 216.032,127.864 216.324,127.864 217.037 M111.462 217.685 L 110.185 219.074 111.574 217.798 C 112.867 216.610,113.133 216.296,112.850 216.296 C 112.789 216.296,112.164 216.921,111.462 217.685 M268.661 225.185 C 268.661 227.731,268.720 228.773,268.793 227.500 C 268.865 226.227,268.865 224.144,268.793 222.870 C 268.720 221.597,268.661 222.639,268.661 225.185 M267.207 239.815 C 267.208 248.981,267.256 252.678,267.315 248.030 C 267.373 243.382,267.373 235.882,267.314 231.364 C 267.255 226.845,267.207 230.648,267.207 239.815 M117.734 236.956 C 117.612 237.692,117.666 238.038,117.872 237.832 C 118.058 237.646,118.149 237.099,118.073 236.617 C 117.956 235.875,117.904 235.928,117.734 236.956 M192.014 244.537 L 190.926 245.741 192.130 244.653 C 192.792 244.055,193.333 243.513,193.333 243.449 C 193.333 243.163,193.028 243.415,192.014 244.537 M229.748 284.815 C 229.748 286.139,229.815 286.681,229.898 286.019 C 229.980 285.356,229.980 284.273,229.898 283.611 C 229.815 282.949,229.748 283.491,229.748 284.815 M186.659 284.267 C 185.802 285.179,185.798 285.215,186.482 285.841 C 187.147 286.450,187.157 286.449,186.685 285.822 C 186.255 285.252,186.304 285.040,187.047 284.248 C 187.520 283.745,187.824 283.333,187.722 283.333 C 187.620 283.333,187.142 283.753,186.659 284.267 M172.222 297.593 C 173.329 298.713,174.317 299.630,174.419 299.630 C 174.521 299.630,173.699 298.713,172.593 297.593 C 171.486 296.472,170.498 295.556,170.396 295.556 C 170.294 295.556,171.116 296.472,172.222 297.593 M112.947 332.315 C 114.482 333.950,114.815 334.244,114.815 333.966 C 114.815 333.907,114.023 333.115,113.056 332.207 L 111.296 330.556 112.947 332.315 M117.222 336.667 C 118.225 337.685,119.130 338.519,119.231 338.519 C 119.333 338.519,118.596 337.685,117.593 336.667 C 116.589 335.648,115.685 334.815,115.583 334.815 C 115.482 334.815,116.219 335.648,117.222 336.667 M221.567 359.630 C 221.567 360.343,221.644 360.634,221.737 360.278 C 221.830 359.921,221.830 359.338,221.737 358.981 C 221.644 358.625,221.567 358.917,221.567 359.630 M200.471 384.815 C 200.471 385.731,200.543 386.106,200.632 385.648 C 200.720 385.190,200.720 384.440,200.632 383.981 C 200.543 383.523,200.471 383.898,200.471 384.815 " stroke="none" fill="#848484" fill-rule="evenodd"></path><path id="path4" d="M266.458 127.222 C 266.458 132.519,266.510 134.634,266.573 131.923 C 266.637 129.211,266.636 124.878,266.573 122.293 C 266.509 119.708,266.457 121.926,266.458 127.222 M269.381 154.259 C 269.382 155.685,269.449 156.223,269.530 155.455 C 269.610 154.686,269.608 153.520,269.527 152.862 C 269.445 152.205,269.379 152.833,269.381 154.259 M266.966 212.130 C 266.903 212.282,266.942 214.907,267.052 217.963 L 267.252 223.519 267.330 217.685 C 267.400 212.434,267.323 211.264,266.966 212.130 M268.624 231.296 C 268.627 232.315,268.699 232.688,268.784 232.125 C 268.869 231.562,268.867 230.728,268.779 230.273 C 268.691 229.817,268.622 230.278,268.624 231.296 " stroke="none" fill="#7c7c7c" fill-rule="evenodd"></path></g></svg>